<?xml version="1.0" encoding="UTF-8"?>
<svg width="24px" height="24px" viewBox="0 0 24 24" version="1.1" xmlns="http://www.w3.org/2000/svg" xmlns:xlink="http://www.w3.org/1999/xlink">
    <title>切片</title>
    <g id="页面-1" stroke="none" stroke-width="1" fill="none" fill-rule="evenodd">
        <g id="专业流程_流程设计_部分交互设计" transform="translate(-290.000000, -711.000000)">
            <g id="编组-6备份-11" transform="translate(272.000000, 693.000000)">
                <g id="编组-11" transform="translate(0.000000, 0.000000)">
                    <g id="icon/画布/节点/人工_样式2" transform="translate(18.000000, 18.000000)">
                        <rect id="矩形" fill="#D8D8D8" opacity="0" x="0" y="0" width="24" height="24"></rect>
                        <path d="M21.3509118,23.25 L3.40203116,23.25 L3.28199913,23.1790731 L3.28199797,23.1790725 C2.93059525,22.9793176 2.5925235,22.7569766 2.26990971,22.513451 L2.26990977,22.5134511 C1.76917885,22.1081662 1.4849702,21.4933956 1.50061358,20.8493975 L1.50334158,20.6761722 C1.50606958,20.3229018 1.51016158,19.9614475 1.6083696,19.5918094 C1.8388878,18.7215912 2.48542396,18.1569041 3.12786813,17.6535961 C3.96809234,16.9920666 4.9610846,16.4314715 6.34963695,15.8367769 L6.34963895,15.8367761 C7.05852485,15.5336042 7.77829291,15.2565311 8.5074875,15.0061132 C8.84712359,14.8874471 9.20176368,14.519173 9.41045573,14.0663321 C9.57686377,13.7103338 9.62460379,13.3543354 9.54549177,13.1019994 L9.50593363,13.0569888 C8.56340938,11.9167029 7.81457319,10.9032669 7.4599331,9.14646277 C7.17622103,7.73474516 7.21714104,6.39941033 7.58132913,5.18274161 C8.14329728,3.31136328 9.35316559,2.09878651 11.081354,1.66776934 C11.3418781,1.60366236 11.5955822,1.55728709 11.8465582,1.5313715 L11.8465582,1.50136398 L12.9050225,1.5 L12.9050225,1.5313715 C13.1559986,1.55592311 13.4124306,1.60366236 13.6715907,1.66776934 C15.3997791,2.09742253 16.6096474,3.31136328 17.1688876,5.18137764 C17.5371677,6.39941033 17.5739957,7.73338118 17.2930116,9.1450988 C16.9342795,10.9032669 16.1881713,11.9153389 15.2456471,13.0556248 L15.2101831,13.0951802 L15.2074551,13.1006361 C15.1283431,13.3529721 15.1788111,13.7089704 15.3424911,14.0649688 C15.5525472,14.5191736 15.9044593,14.8860838 16.2454594,15.0033859 C17.0352156,15.2775456 17.7417677,15.5503412 18.4033079,15.8354127 C19.7918603,16.4301073 20.7821245,16.9907024 21.6250767,17.6522319 C22.2375129,18.1337163 22.9126931,18.720227 23.1432091,19.5918092 C23.2400531,19.9600833 23.2441451,20.3215376 23.2482371,20.6707161 L23.2496011,20.8480333 C23.2618772,21.5013789 22.9904411,22.0933455 22.481669,22.5120869 C22.1720409,22.7685148 21.5432367,23.138153 21.4723087,23.1777083 L21.3509127,23.25 L21.3509118,23.25 Z" id="路径备份" fill="currentColor" fill-rule="nonzero"></path>
                    </g>
                </g>
            </g>
        </g>
    </g>
</svg>