<?xml version="1.0" encoding="UTF-8"?>
<svg width="20px" height="20px" viewBox="0 0 20 20" version="1.1" xmlns="http://www.w3.org/2000/svg" xmlns:xlink="http://www.w3.org/1999/xlink">
    <g id="页面-1" stroke="none" stroke-width="1" fill="none" fill-rule="evenodd">
        <g id="专业流程_流程设计_部分交互设计" transform="translate(-290.000000, -260.000000)">
            <g id="编组-10备份-5" transform="translate(270.000000, 252.000000)">
                <g id="编组" transform="translate(6.000000, 8.000000)">
                    <g id="icon/组件栏/节点/排他网关" transform="translate(14.000000, 0.000000)">
                        <rect id="矩形" fill="#FF0000" opacity="0" x="0" y="0" width="20" height="20"></rect>
                        <path d="M8.58578644,7.17157288 L9.99967966,8.58467966 L11.4142136,7.17157288 C11.8047379,6.78104858 12.4379028,6.78104858 12.8284271,7.17157288 C13.2189514,7.56209717 13.2189514,8.19526215 12.8284271,8.58578644 L11.4136797,9.99967966 L12.8284271,11.4142136 C13.2189514,11.8047379 13.2189514,12.4379028 12.8284271,12.8284271 C12.4379028,13.2189514 11.8047379,13.2189514 11.4142136,12.8284271 L9.99967966,11.4136797 L8.58578644,12.8284271 C8.19526215,13.2189514 7.56209717,13.2189514 7.17157288,12.8284271 C6.78104858,12.4379028 6.78104858,11.8047379 7.17157288,11.4142136 L8.58467966,9.99967966 L7.17157288,8.58578644 C6.78104858,8.19526215 6.78104858,7.56209717 7.17157288,7.17157288 C7.56209717,6.78104858 8.19526215,6.78104858 8.58578644,7.17157288 Z" id="形状结合" fill="currentColor"></path>
                        <path d="M18.7867966,7.07106781 C20.4044011,8.68867239 20.4044011,11.3113276 18.7867966,12.9289322 L12.9289322,18.7867966 C11.3113276,20.4044011 8.68867239,20.4044011 7.07106781,18.7867966 L1.21320344,12.9289322 C-0.404401145,11.3113276 -0.404401145,8.68867239 1.21320344,7.07106781 L7.07106781,1.21320344 C8.68867239,-0.404401145 11.3113276,-0.404401145 12.9289322,1.21320344 L18.7867966,7.07106781 Z M17.3223305,8.53553391 L11.4644661,2.67766953 C10.6924275,1.90563098 9.46250952,1.87053832 8.64884557,2.57239155 L8.53553391,2.67766953 L2.67766953,8.53553391 C1.90563098,9.30757246 1.87053832,10.5374905 2.57239155,11.3511544 L2.67766953,11.4644661 L8.53553391,17.3223305 C9.30757246,18.094369 10.5374905,18.1294617 11.3511544,17.4276085 L11.4644661,17.3223305 L17.3223305,11.4644661 C18.094369,10.6924275 18.1294617,9.46250952 17.4276085,8.64884557 L17.3223305,8.53553391 Z" id="形状" fill="currentColor" fill-rule="nonzero"></path>
                    </g>
                </g>
            </g>
        </g>
    </g>
</svg>