<?xml version="1.0" encoding="UTF-8"?>
<svg width="20px" height="20px" viewBox="0 0 20 20" version="1.1" xmlns="http://www.w3.org/2000/svg" xmlns:xlink="http://www.w3.org/1999/xlink">
    <g id="页面-1" stroke="none" stroke-width="1" fill="none" fill-rule="evenodd">
        <g id="专业流程_流程设计_部分交互设计" transform="translate(-290.000000, -184.000000)" fill="currentColor">
            <g id="编组-10备份-6" transform="translate(270.000000, 176.000000)">
                <g id="编组" transform="translate(18.000000, 8.000000)">
                    <g id="icon/组件栏/节点/人工" transform="translate(2.000000, 0.000000)">
                        <rect id="矩形" opacity="0" x="0" y="0" width="20" height="20"></rect>
                        <path d="M17.7924265,19.375 L2.83502596,19.375 L2.73499927,19.3158943 L2.73499831,19.3158937 C2.44216271,19.1494313 2.16043625,18.9641471 1.89159142,18.7612092 L1.89159148,18.7612092 C1.47431571,18.4234718 1.23747517,17.911163 1.25051131,17.3744979 L1.25278465,17.2301435 C1.25505798,16.9357515 1.25846798,16.6345396 1.340308,16.3265078 C1.5324065,15.601326 2.07118663,15.1307534 2.60655677,14.7113301 C3.30674362,14.1600555 4.13423716,13.6928929 5.29136413,13.1973141 L5.29136579,13.1973134 C5.88210404,12.9446701 6.48191076,12.713776 7.08957292,12.5050944 C7.37260299,12.4062059 7.6681364,12.0993108 7.84204644,11.7219434 C7.98071981,11.4252782 8.02050316,11.1286129 7.95457647,10.9183329 L7.92161135,10.880824 C7.13617449,9.93058571 6.51214433,9.08605577 6.21661092,7.62205231 C5.98018419,6.44562096 6.0142842,5.33284194 6.31777428,4.31895135 C6.78608106,2.7594694 7.79430466,1.74898876 9.23446169,1.38980778 C9.45156508,1.3363853 9.66298513,1.29773924 9.87213185,1.27614292 L9.87213185,1.25113665 L10.7541854,1.25 L10.7541854,1.27614292 C10.9633321,1.29660259 11.1770255,1.3363853 11.3929922,1.38980778 C12.8331493,1.74785211 13.8413729,2.7594694 14.3074063,4.3178147 C14.6143064,5.33284194 14.6449964,6.44448431 14.410843,7.62091566 C14.1118996,9.08605577 13.4901428,9.92944906 12.7047059,10.8796873 L12.6751526,10.9126501 L12.6728792,10.9171967 C12.6069526,11.1274767 12.6490092,11.424142 12.7854093,11.7208073 C12.960456,12.0993113 13.2537161,12.4050698 13.5378828,12.5028216 C14.196013,12.731288 14.7848064,12.9586177 15.3360899,13.1961773 C16.4932169,13.6917561 17.3184371,14.1589187 18.0208973,14.7101933 C18.5312607,15.1114302 19.0939109,15.6001892 19.2860076,16.3265076 C19.366711,16.6334028 19.370121,16.9346147 19.373531,17.2255967 L19.3746676,17.3733611 C19.3848976,17.9178158 19.1587009,18.4111213 18.7347241,18.7600724 C18.4767007,18.9737623 17.9526973,19.2817941 17.8935906,19.3147569 L17.7924272,19.375 L17.7924265,19.375 Z" id="路径备份" fill-rule="nonzero"></path>
                    </g>
                </g>
            </g>
        </g>
    </g>
</svg>